<mxfile host="app.diagrams.net" modified="2023-02-06T07:03:50.084Z" agent="5.0 (Windows NT 10.0; WOW64) AppleWebKit/537.36 (KHTML, like Gecko) Chrome/86.0.4240.198 Safari/537.36" etag="0PftbwUqMeY7GU1cCvv6" version="20.8.13" type="github">
  <diagram name="第 1 页" id="m2Nv4it-5vYWjkUrnx_C">
    <mxGraphModel dx="2199" dy="783" grid="1" gridSize="10" guides="1" tooltips="1" connect="1" arrows="1" fold="1" page="1" pageScale="1" pageWidth="827" pageHeight="1169" math="0" shadow="0">
      <root>
        <mxCell id="0" />
        <mxCell id="1" parent="0" />
        <mxCell id="9yJDeuIBgiFLJVAhCD0K-27" value="" style="whiteSpace=wrap;html=1;aspect=fixed;" vertex="1" parent="1">
          <mxGeometry x="-131" y="720" width="510" height="510" as="geometry" />
        </mxCell>
        <mxCell id="9yJDeuIBgiFLJVAhCD0K-29" value="" style="whiteSpace=wrap;html=1;aspect=fixed;" vertex="1" parent="1">
          <mxGeometry x="-131" y="1560" width="510" height="510" as="geometry" />
        </mxCell>
        <mxCell id="9yJDeuIBgiFLJVAhCD0K-54" value="" style="edgeStyle=orthogonalEdgeStyle;rounded=0;orthogonalLoop=1;jettySize=auto;html=1;" edge="1" parent="1" source="9yJDeuIBgiFLJVAhCD0K-27" target="9yJDeuIBgiFLJVAhCD0K-12">
          <mxGeometry relative="1" as="geometry" />
        </mxCell>
        <mxCell id="9yJDeuIBgiFLJVAhCD0K-5" style="edgeStyle=orthogonalEdgeStyle;rounded=0;orthogonalLoop=1;jettySize=auto;html=1;" edge="1" parent="1" source="9yJDeuIBgiFLJVAhCD0K-3" target="9yJDeuIBgiFLJVAhCD0K-4">
          <mxGeometry relative="1" as="geometry" />
        </mxCell>
        <mxCell id="9yJDeuIBgiFLJVAhCD0K-3" value="项目开始" style="ellipse;whiteSpace=wrap;html=1;" vertex="1" parent="1">
          <mxGeometry x="64" y="40" width="120" height="80" as="geometry" />
        </mxCell>
        <mxCell id="9yJDeuIBgiFLJVAhCD0K-68" style="edgeStyle=orthogonalEdgeStyle;rounded=0;orthogonalLoop=1;jettySize=auto;html=1;" edge="1" parent="1" source="9yJDeuIBgiFLJVAhCD0K-4" target="9yJDeuIBgiFLJVAhCD0K-8">
          <mxGeometry relative="1" as="geometry" />
        </mxCell>
        <mxCell id="9yJDeuIBgiFLJVAhCD0K-4" value="产品设计" style="rounded=1;whiteSpace=wrap;html=1;" vertex="1" parent="1">
          <mxGeometry x="64" y="180" width="120" height="60" as="geometry" />
        </mxCell>
        <mxCell id="9yJDeuIBgiFLJVAhCD0K-6" value="ui设计" style="rounded=1;whiteSpace=wrap;html=1;" vertex="1" parent="1">
          <mxGeometry x="-81" y="430" width="120" height="60" as="geometry" />
        </mxCell>
        <mxCell id="9yJDeuIBgiFLJVAhCD0K-11" style="edgeStyle=orthogonalEdgeStyle;rounded=0;orthogonalLoop=1;jettySize=auto;html=1;" edge="1" parent="1" source="9yJDeuIBgiFLJVAhCD0K-8" target="9yJDeuIBgiFLJVAhCD0K-70">
          <mxGeometry relative="1" as="geometry" />
        </mxCell>
        <mxCell id="9yJDeuIBgiFLJVAhCD0K-69" style="edgeStyle=orthogonalEdgeStyle;rounded=0;orthogonalLoop=1;jettySize=auto;html=1;" edge="1" parent="1" source="9yJDeuIBgiFLJVAhCD0K-8" target="9yJDeuIBgiFLJVAhCD0K-6">
          <mxGeometry relative="1" as="geometry" />
        </mxCell>
        <mxCell id="9yJDeuIBgiFLJVAhCD0K-8" value="产品评审" style="rounded=1;whiteSpace=wrap;html=1;" vertex="1" parent="1">
          <mxGeometry x="64" y="300" width="120" height="60" as="geometry" />
        </mxCell>
        <mxCell id="9yJDeuIBgiFLJVAhCD0K-13" style="edgeStyle=orthogonalEdgeStyle;rounded=0;orthogonalLoop=1;jettySize=auto;html=1;entryX=0.5;entryY=0;entryDx=0;entryDy=0;" edge="1" parent="1" source="9yJDeuIBgiFLJVAhCD0K-10" target="9yJDeuIBgiFLJVAhCD0K-23">
          <mxGeometry relative="1" as="geometry" />
        </mxCell>
        <mxCell id="9yJDeuIBgiFLJVAhCD0K-87" style="edgeStyle=orthogonalEdgeStyle;rounded=0;orthogonalLoop=1;jettySize=auto;html=1;dashed=1;" edge="1" parent="1" source="9yJDeuIBgiFLJVAhCD0K-10" target="9yJDeuIBgiFLJVAhCD0K-74">
          <mxGeometry relative="1" as="geometry" />
        </mxCell>
        <mxCell id="9yJDeuIBgiFLJVAhCD0K-10" value="功能评估" style="rounded=1;whiteSpace=wrap;html=1;" vertex="1" parent="1">
          <mxGeometry x="64" y="570" width="120" height="60" as="geometry" />
        </mxCell>
        <mxCell id="9yJDeuIBgiFLJVAhCD0K-16" value="" style="edgeStyle=orthogonalEdgeStyle;rounded=0;orthogonalLoop=1;jettySize=auto;html=1;" edge="1" parent="1" source="9yJDeuIBgiFLJVAhCD0K-12" target="9yJDeuIBgiFLJVAhCD0K-14">
          <mxGeometry relative="1" as="geometry" />
        </mxCell>
        <mxCell id="9yJDeuIBgiFLJVAhCD0K-88" style="edgeStyle=orthogonalEdgeStyle;rounded=0;orthogonalLoop=1;jettySize=auto;html=1;dashed=1;" edge="1" parent="1" source="9yJDeuIBgiFLJVAhCD0K-12" target="9yJDeuIBgiFLJVAhCD0K-77">
          <mxGeometry relative="1" as="geometry" />
        </mxCell>
        <mxCell id="9yJDeuIBgiFLJVAhCD0K-12" value="工期评估" style="rounded=1;whiteSpace=wrap;html=1;" vertex="1" parent="1">
          <mxGeometry x="64" y="1310" width="120" height="60" as="geometry" />
        </mxCell>
        <mxCell id="9yJDeuIBgiFLJVAhCD0K-35" style="edgeStyle=orthogonalEdgeStyle;rounded=0;orthogonalLoop=1;jettySize=auto;html=1;" edge="1" parent="1" source="9yJDeuIBgiFLJVAhCD0K-14" target="9yJDeuIBgiFLJVAhCD0K-32">
          <mxGeometry relative="1" as="geometry" />
        </mxCell>
        <mxCell id="9yJDeuIBgiFLJVAhCD0K-14" value="代码开发" style="rounded=1;whiteSpace=wrap;html=1;" vertex="1" parent="1">
          <mxGeometry x="64" y="1430" width="120" height="60" as="geometry" />
        </mxCell>
        <mxCell id="9yJDeuIBgiFLJVAhCD0K-15" value="接收产品设计标准&lt;br&gt;1.产品设计：使用场景明确。&lt;br&gt;2.产品设计：解决的问题明确。" style="shape=document;whiteSpace=wrap;html=1;boundedLbl=1;align=left;" vertex="1" parent="1">
          <mxGeometry x="400" y="295" width="170" height="70" as="geometry" />
        </mxCell>
        <mxCell id="9yJDeuIBgiFLJVAhCD0K-37" style="edgeStyle=orthogonalEdgeStyle;rounded=0;orthogonalLoop=1;jettySize=auto;html=1;entryX=0.5;entryY=0;entryDx=0;entryDy=0;" edge="1" parent="1" source="9yJDeuIBgiFLJVAhCD0K-17" target="9yJDeuIBgiFLJVAhCD0K-19">
          <mxGeometry relative="1" as="geometry" />
        </mxCell>
        <mxCell id="9yJDeuIBgiFLJVAhCD0K-90" style="edgeStyle=orthogonalEdgeStyle;rounded=0;orthogonalLoop=1;jettySize=auto;html=1;dashed=1;" edge="1" parent="1" source="9yJDeuIBgiFLJVAhCD0K-17" target="9yJDeuIBgiFLJVAhCD0K-81">
          <mxGeometry relative="1" as="geometry" />
        </mxCell>
        <mxCell id="9yJDeuIBgiFLJVAhCD0K-17" value="联调" style="rounded=1;whiteSpace=wrap;html=1;" vertex="1" parent="1">
          <mxGeometry x="64" y="2260" width="120" height="60" as="geometry" />
        </mxCell>
        <mxCell id="9yJDeuIBgiFLJVAhCD0K-38" style="edgeStyle=orthogonalEdgeStyle;rounded=0;orthogonalLoop=1;jettySize=auto;html=1;" edge="1" parent="1" source="9yJDeuIBgiFLJVAhCD0K-19" target="9yJDeuIBgiFLJVAhCD0K-20">
          <mxGeometry relative="1" as="geometry" />
        </mxCell>
        <mxCell id="9yJDeuIBgiFLJVAhCD0K-19" value="联调自测" style="rounded=1;whiteSpace=wrap;html=1;" vertex="1" parent="1">
          <mxGeometry x="64" y="2400" width="120" height="60" as="geometry" />
        </mxCell>
        <mxCell id="9yJDeuIBgiFLJVAhCD0K-45" value="" style="edgeStyle=orthogonalEdgeStyle;rounded=0;orthogonalLoop=1;jettySize=auto;html=1;" edge="1" parent="1" source="9yJDeuIBgiFLJVAhCD0K-20" target="9yJDeuIBgiFLJVAhCD0K-44">
          <mxGeometry relative="1" as="geometry" />
        </mxCell>
        <mxCell id="9yJDeuIBgiFLJVAhCD0K-91" style="edgeStyle=orthogonalEdgeStyle;rounded=0;orthogonalLoop=1;jettySize=auto;html=1;dashed=1;exitX=0;exitY=0.25;exitDx=0;exitDy=0;entryX=1;entryY=0.333;entryDx=0;entryDy=0;entryPerimeter=0;" edge="1" parent="1" source="9yJDeuIBgiFLJVAhCD0K-20" target="9yJDeuIBgiFLJVAhCD0K-83">
          <mxGeometry relative="1" as="geometry">
            <mxPoint x="-880" y="2490" as="targetPoint" />
            <Array as="points">
              <mxPoint x="-250" y="2555" />
              <mxPoint x="-250" y="2520" />
              <mxPoint x="-470" y="2520" />
              <mxPoint x="-470" y="2560" />
            </Array>
          </mxGeometry>
        </mxCell>
        <mxCell id="9yJDeuIBgiFLJVAhCD0K-103" style="edgeStyle=orthogonalEdgeStyle;rounded=0;orthogonalLoop=1;jettySize=auto;html=1;exitX=0;exitY=0.75;exitDx=0;exitDy=0;entryX=1;entryY=0.75;entryDx=0;entryDy=0;dashed=1;" edge="1" parent="1" source="9yJDeuIBgiFLJVAhCD0K-20" target="9yJDeuIBgiFLJVAhCD0K-97">
          <mxGeometry relative="1" as="geometry" />
        </mxCell>
        <mxCell id="9yJDeuIBgiFLJVAhCD0K-20" value="测试" style="rounded=1;whiteSpace=wrap;html=1;" vertex="1" parent="1">
          <mxGeometry x="64" y="2540" width="120" height="60" as="geometry" />
        </mxCell>
        <mxCell id="9yJDeuIBgiFLJVAhCD0K-34" style="edgeStyle=orthogonalEdgeStyle;rounded=0;orthogonalLoop=1;jettySize=auto;html=1;" edge="1" parent="1" source="9yJDeuIBgiFLJVAhCD0K-22" target="9yJDeuIBgiFLJVAhCD0K-12">
          <mxGeometry relative="1" as="geometry" />
        </mxCell>
        <mxCell id="9yJDeuIBgiFLJVAhCD0K-56" value="否" style="edgeLabel;html=1;align=center;verticalAlign=middle;resizable=0;points=[];" vertex="1" connectable="0" parent="9yJDeuIBgiFLJVAhCD0K-34">
          <mxGeometry x="-0.2364" relative="1" as="geometry">
            <mxPoint as="offset" />
          </mxGeometry>
        </mxCell>
        <mxCell id="9yJDeuIBgiFLJVAhCD0K-50" style="edgeStyle=orthogonalEdgeStyle;rounded=0;orthogonalLoop=1;jettySize=auto;html=1;" edge="1" parent="1" source="9yJDeuIBgiFLJVAhCD0K-22" target="9yJDeuIBgiFLJVAhCD0K-49">
          <mxGeometry relative="1" as="geometry" />
        </mxCell>
        <mxCell id="9yJDeuIBgiFLJVAhCD0K-52" value="是" style="edgeLabel;html=1;align=center;verticalAlign=middle;resizable=0;points=[];" vertex="1" connectable="0" parent="9yJDeuIBgiFLJVAhCD0K-50">
          <mxGeometry x="-0.0522" y="2" relative="1" as="geometry">
            <mxPoint as="offset" />
          </mxGeometry>
        </mxCell>
        <mxCell id="9yJDeuIBgiFLJVAhCD0K-22" value="功能是否有更优解决方案" style="rhombus;whiteSpace=wrap;html=1;" vertex="1" parent="1">
          <mxGeometry x="39" y="1020" width="170" height="180" as="geometry" />
        </mxCell>
        <mxCell id="9yJDeuIBgiFLJVAhCD0K-26" value="否" style="edgeStyle=orthogonalEdgeStyle;rounded=0;orthogonalLoop=1;jettySize=auto;html=1;" edge="1" parent="1" source="9yJDeuIBgiFLJVAhCD0K-23" target="9yJDeuIBgiFLJVAhCD0K-22">
          <mxGeometry relative="1" as="geometry" />
        </mxCell>
        <mxCell id="9yJDeuIBgiFLJVAhCD0K-47" value="" style="edgeStyle=orthogonalEdgeStyle;rounded=0;orthogonalLoop=1;jettySize=auto;html=1;" edge="1" parent="1" source="9yJDeuIBgiFLJVAhCD0K-23" target="9yJDeuIBgiFLJVAhCD0K-46">
          <mxGeometry relative="1" as="geometry" />
        </mxCell>
        <mxCell id="9yJDeuIBgiFLJVAhCD0K-53" value="是" style="edgeLabel;html=1;align=center;verticalAlign=middle;resizable=0;points=[];" vertex="1" connectable="0" parent="9yJDeuIBgiFLJVAhCD0K-47">
          <mxGeometry x="-0.1867" y="1" relative="1" as="geometry">
            <mxPoint as="offset" />
          </mxGeometry>
        </mxCell>
        <mxCell id="9yJDeuIBgiFLJVAhCD0K-23" value="产品设计是否有问题" style="rhombus;whiteSpace=wrap;html=1;" vertex="1" parent="1">
          <mxGeometry x="39" y="770" width="170" height="180" as="geometry" />
        </mxCell>
        <mxCell id="9yJDeuIBgiFLJVAhCD0K-28" value="异常流程" style="text;html=1;strokeColor=none;fillColor=none;align=center;verticalAlign=middle;whiteSpace=wrap;rounded=0;" vertex="1" parent="1">
          <mxGeometry x="-110" y="740" width="60" height="30" as="geometry" />
        </mxCell>
        <mxCell id="9yJDeuIBgiFLJVAhCD0K-40" style="edgeStyle=orthogonalEdgeStyle;rounded=0;orthogonalLoop=1;jettySize=auto;html=1;" edge="1" parent="1" source="9yJDeuIBgiFLJVAhCD0K-30" target="9yJDeuIBgiFLJVAhCD0K-39">
          <mxGeometry relative="1" as="geometry" />
        </mxCell>
        <mxCell id="9yJDeuIBgiFLJVAhCD0K-60" style="edgeStyle=orthogonalEdgeStyle;rounded=0;orthogonalLoop=1;jettySize=auto;html=1;" edge="1" parent="1" source="9yJDeuIBgiFLJVAhCD0K-30" target="9yJDeuIBgiFLJVAhCD0K-58">
          <mxGeometry relative="1" as="geometry" />
        </mxCell>
        <mxCell id="9yJDeuIBgiFLJVAhCD0K-30" value="功能是否有更优解决方案" style="rhombus;whiteSpace=wrap;html=1;" vertex="1" parent="1">
          <mxGeometry x="39" y="1860" width="170" height="180" as="geometry" />
        </mxCell>
        <mxCell id="9yJDeuIBgiFLJVAhCD0K-31" style="edgeStyle=orthogonalEdgeStyle;rounded=0;orthogonalLoop=1;jettySize=auto;html=1;" edge="1" parent="1" source="9yJDeuIBgiFLJVAhCD0K-32" target="9yJDeuIBgiFLJVAhCD0K-30">
          <mxGeometry relative="1" as="geometry" />
        </mxCell>
        <mxCell id="9yJDeuIBgiFLJVAhCD0K-59" style="edgeStyle=orthogonalEdgeStyle;rounded=0;orthogonalLoop=1;jettySize=auto;html=1;" edge="1" parent="1" source="9yJDeuIBgiFLJVAhCD0K-32" target="9yJDeuIBgiFLJVAhCD0K-57">
          <mxGeometry relative="1" as="geometry" />
        </mxCell>
        <mxCell id="9yJDeuIBgiFLJVAhCD0K-32" value="产品设计是否有问题" style="rhombus;whiteSpace=wrap;html=1;" vertex="1" parent="1">
          <mxGeometry x="39" y="1610" width="170" height="180" as="geometry" />
        </mxCell>
        <mxCell id="9yJDeuIBgiFLJVAhCD0K-33" value="异常流程" style="text;html=1;strokeColor=none;fillColor=none;align=center;verticalAlign=middle;whiteSpace=wrap;rounded=0;" vertex="1" parent="1">
          <mxGeometry x="-110" y="1580" width="60" height="30" as="geometry" />
        </mxCell>
        <mxCell id="9yJDeuIBgiFLJVAhCD0K-41" style="edgeStyle=orthogonalEdgeStyle;rounded=0;orthogonalLoop=1;jettySize=auto;html=1;entryX=0.5;entryY=0;entryDx=0;entryDy=0;" edge="1" parent="1" source="9yJDeuIBgiFLJVAhCD0K-39" target="9yJDeuIBgiFLJVAhCD0K-17">
          <mxGeometry relative="1" as="geometry" />
        </mxCell>
        <mxCell id="9yJDeuIBgiFLJVAhCD0K-89" style="edgeStyle=orthogonalEdgeStyle;rounded=0;orthogonalLoop=1;jettySize=auto;html=1;dashed=1;" edge="1" parent="1" source="9yJDeuIBgiFLJVAhCD0K-39" target="9yJDeuIBgiFLJVAhCD0K-78">
          <mxGeometry relative="1" as="geometry" />
        </mxCell>
        <mxCell id="9yJDeuIBgiFLJVAhCD0K-39" value="接口自测" style="rounded=1;whiteSpace=wrap;html=1;" vertex="1" parent="1">
          <mxGeometry x="64" y="2130" width="120" height="60" as="geometry" />
        </mxCell>
        <mxCell id="9yJDeuIBgiFLJVAhCD0K-42" value="自测标准：&lt;br&gt;1.接口至少有一套可以调通的数据，保障前端联调进度，不用等待&lt;br&gt;2.接口jemmeter测试，达到测试标准" style="shape=document;whiteSpace=wrap;html=1;boundedLbl=1;align=left;" vertex="1" parent="1">
          <mxGeometry x="379" y="2130" width="361" height="90" as="geometry" />
        </mxCell>
        <mxCell id="9yJDeuIBgiFLJVAhCD0K-43" value="联调自测标准：&lt;br&gt;1.业务流程和产品设计一致&lt;br&gt;2.新创建的一套数据可以完整走通流程" style="shape=document;whiteSpace=wrap;html=1;boundedLbl=1;align=left;" vertex="1" parent="1">
          <mxGeometry x="379" y="2400" width="241" height="80" as="geometry" />
        </mxCell>
        <mxCell id="9yJDeuIBgiFLJVAhCD0K-106" style="edgeStyle=orthogonalEdgeStyle;rounded=0;orthogonalLoop=1;jettySize=auto;html=1;dashed=1;" edge="1" parent="1" source="9yJDeuIBgiFLJVAhCD0K-44" target="9yJDeuIBgiFLJVAhCD0K-99">
          <mxGeometry relative="1" as="geometry" />
        </mxCell>
        <mxCell id="9yJDeuIBgiFLJVAhCD0K-44" value="跟进发版&lt;br&gt;测试验收" style="rounded=1;whiteSpace=wrap;html=1;" vertex="1" parent="1">
          <mxGeometry x="64" y="2680" width="120" height="60" as="geometry" />
        </mxCell>
        <mxCell id="9yJDeuIBgiFLJVAhCD0K-48" style="edgeStyle=orthogonalEdgeStyle;rounded=0;orthogonalLoop=1;jettySize=auto;html=1;entryX=1;entryY=0.5;entryDx=0;entryDy=0;exitX=0.5;exitY=0;exitDx=0;exitDy=0;" edge="1" parent="1" source="9yJDeuIBgiFLJVAhCD0K-46" target="9yJDeuIBgiFLJVAhCD0K-10">
          <mxGeometry relative="1" as="geometry" />
        </mxCell>
        <mxCell id="9yJDeuIBgiFLJVAhCD0K-46" value="找产品确认问题，&lt;br&gt;禅道列出有问题的子任务，写明原因，设置为暂停&lt;br&gt;" style="whiteSpace=wrap;html=1;" vertex="1" parent="1">
          <mxGeometry x="450" y="835" width="150" height="50" as="geometry" />
        </mxCell>
        <mxCell id="9yJDeuIBgiFLJVAhCD0K-51" style="edgeStyle=orthogonalEdgeStyle;rounded=0;orthogonalLoop=1;jettySize=auto;html=1;entryX=1;entryY=0.25;entryDx=0;entryDy=0;exitX=0.5;exitY=0;exitDx=0;exitDy=0;" edge="1" parent="1" source="9yJDeuIBgiFLJVAhCD0K-49" target="9yJDeuIBgiFLJVAhCD0K-10">
          <mxGeometry relative="1" as="geometry" />
        </mxCell>
        <mxCell id="9yJDeuIBgiFLJVAhCD0K-49" value="找产品确认优化方案" style="whiteSpace=wrap;html=1;" vertex="1" parent="1">
          <mxGeometry x="650" y="1085" width="150" height="50" as="geometry" />
        </mxCell>
        <mxCell id="9yJDeuIBgiFLJVAhCD0K-62" value="" style="edgeStyle=orthogonalEdgeStyle;rounded=0;orthogonalLoop=1;jettySize=auto;html=1;" edge="1" parent="1" source="9yJDeuIBgiFLJVAhCD0K-57" target="9yJDeuIBgiFLJVAhCD0K-61">
          <mxGeometry relative="1" as="geometry" />
        </mxCell>
        <mxCell id="9yJDeuIBgiFLJVAhCD0K-57" value="找产品确认问题，&lt;br&gt;禅道列出有问题的子任务，写明原因，设置为暂停&lt;br&gt;" style="whiteSpace=wrap;html=1;" vertex="1" parent="1">
          <mxGeometry x="460" y="1675" width="150" height="50" as="geometry" />
        </mxCell>
        <mxCell id="9yJDeuIBgiFLJVAhCD0K-67" style="edgeStyle=orthogonalEdgeStyle;rounded=0;orthogonalLoop=1;jettySize=auto;html=1;entryX=0.5;entryY=1;entryDx=0;entryDy=0;" edge="1" parent="1" source="9yJDeuIBgiFLJVAhCD0K-58" target="9yJDeuIBgiFLJVAhCD0K-61">
          <mxGeometry relative="1" as="geometry" />
        </mxCell>
        <mxCell id="9yJDeuIBgiFLJVAhCD0K-58" value="找产品确认优化方案" style="whiteSpace=wrap;html=1;" vertex="1" parent="1">
          <mxGeometry x="575" y="1925" width="150" height="50" as="geometry" />
        </mxCell>
        <mxCell id="9yJDeuIBgiFLJVAhCD0K-63" style="edgeStyle=orthogonalEdgeStyle;rounded=0;orthogonalLoop=1;jettySize=auto;html=1;" edge="1" parent="1" source="9yJDeuIBgiFLJVAhCD0K-61" target="9yJDeuIBgiFLJVAhCD0K-14">
          <mxGeometry relative="1" as="geometry" />
        </mxCell>
        <mxCell id="9yJDeuIBgiFLJVAhCD0K-64" value="否" style="edgeLabel;html=1;align=center;verticalAlign=middle;resizable=0;points=[];" vertex="1" connectable="0" parent="9yJDeuIBgiFLJVAhCD0K-63">
          <mxGeometry x="-0.2154" y="4" relative="1" as="geometry">
            <mxPoint as="offset" />
          </mxGeometry>
        </mxCell>
        <mxCell id="9yJDeuIBgiFLJVAhCD0K-65" style="edgeStyle=orthogonalEdgeStyle;rounded=0;orthogonalLoop=1;jettySize=auto;html=1;entryX=1;entryY=0.5;entryDx=0;entryDy=0;exitX=0.5;exitY=0;exitDx=0;exitDy=0;" edge="1" parent="1" source="9yJDeuIBgiFLJVAhCD0K-61" target="9yJDeuIBgiFLJVAhCD0K-12">
          <mxGeometry relative="1" as="geometry" />
        </mxCell>
        <mxCell id="9yJDeuIBgiFLJVAhCD0K-66" value="是" style="edgeLabel;html=1;align=center;verticalAlign=middle;resizable=0;points=[];" vertex="1" connectable="0" parent="9yJDeuIBgiFLJVAhCD0K-65">
          <mxGeometry x="0.0255" y="5" relative="1" as="geometry">
            <mxPoint as="offset" />
          </mxGeometry>
        </mxCell>
        <mxCell id="9yJDeuIBgiFLJVAhCD0K-61" value="是否影响工期" style="rhombus;whiteSpace=wrap;html=1;" vertex="1" parent="1">
          <mxGeometry x="610" y="1420" width="80" height="80" as="geometry" />
        </mxCell>
        <mxCell id="9yJDeuIBgiFLJVAhCD0K-71" style="edgeStyle=orthogonalEdgeStyle;rounded=0;orthogonalLoop=1;jettySize=auto;html=1;" edge="1" parent="1" source="9yJDeuIBgiFLJVAhCD0K-70" target="9yJDeuIBgiFLJVAhCD0K-10">
          <mxGeometry relative="1" as="geometry" />
        </mxCell>
        <mxCell id="9yJDeuIBgiFLJVAhCD0K-70" value="开发评审" style="rounded=1;whiteSpace=wrap;html=1;" vertex="1" parent="1">
          <mxGeometry x="64" y="430" width="120" height="60" as="geometry" />
        </mxCell>
        <mxCell id="9yJDeuIBgiFLJVAhCD0K-72" value="开发评审&lt;br&gt;1.模块拆分&lt;br&gt;2.接口设计" style="shape=document;whiteSpace=wrap;html=1;boundedLbl=1;align=left;" vertex="1" parent="1">
          <mxGeometry x="400" y="425" width="170" height="70" as="geometry" />
        </mxCell>
        <mxCell id="9yJDeuIBgiFLJVAhCD0K-75" value="" style="edgeStyle=orthogonalEdgeStyle;rounded=0;orthogonalLoop=1;jettySize=auto;html=1;" edge="1" parent="1" source="9yJDeuIBgiFLJVAhCD0K-73" target="9yJDeuIBgiFLJVAhCD0K-74">
          <mxGeometry relative="1" as="geometry" />
        </mxCell>
        <mxCell id="9yJDeuIBgiFLJVAhCD0K-73" value="研发管理开始" style="ellipse;whiteSpace=wrap;html=1;" vertex="1" parent="1">
          <mxGeometry x="-710" y="40" width="120" height="80" as="geometry" />
        </mxCell>
        <mxCell id="9yJDeuIBgiFLJVAhCD0K-79" style="edgeStyle=orthogonalEdgeStyle;rounded=0;orthogonalLoop=1;jettySize=auto;html=1;" edge="1" parent="1" source="9yJDeuIBgiFLJVAhCD0K-74" target="9yJDeuIBgiFLJVAhCD0K-77">
          <mxGeometry relative="1" as="geometry" />
        </mxCell>
        <mxCell id="9yJDeuIBgiFLJVAhCD0K-74" value="验收功能评估报告" style="rounded=1;whiteSpace=wrap;html=1;" vertex="1" parent="1">
          <mxGeometry x="-710" y="570" width="120" height="60" as="geometry" />
        </mxCell>
        <mxCell id="9yJDeuIBgiFLJVAhCD0K-76" value="禅道填写评估报告&lt;br&gt;&lt;ol&gt;&lt;li&gt;模块拆分，模块对应的场景，模块作用&lt;/li&gt;&lt;li&gt;模块拆分成2-3周可完成，最长不能超过3周，超过4周的内容必须拆分成多个模块目标，保障每个月有2个版本上线&lt;/li&gt;&lt;li&gt;是否有需要调研的技术，调研方案&lt;/li&gt;&lt;/ol&gt;" style="shape=document;whiteSpace=wrap;html=1;boundedLbl=1;align=left;" vertex="1" parent="1">
          <mxGeometry x="910" y="570" width="370" height="200" as="geometry" />
        </mxCell>
        <mxCell id="9yJDeuIBgiFLJVAhCD0K-80" style="edgeStyle=orthogonalEdgeStyle;rounded=0;orthogonalLoop=1;jettySize=auto;html=1;" edge="1" parent="1" source="9yJDeuIBgiFLJVAhCD0K-77" target="9yJDeuIBgiFLJVAhCD0K-78">
          <mxGeometry relative="1" as="geometry" />
        </mxCell>
        <mxCell id="9yJDeuIBgiFLJVAhCD0K-77" value="验收工期评估" style="rounded=1;whiteSpace=wrap;html=1;" vertex="1" parent="1">
          <mxGeometry x="-710" y="1310" width="120" height="60" as="geometry" />
        </mxCell>
        <mxCell id="9yJDeuIBgiFLJVAhCD0K-82" style="edgeStyle=orthogonalEdgeStyle;rounded=0;orthogonalLoop=1;jettySize=auto;html=1;" edge="1" parent="1" source="9yJDeuIBgiFLJVAhCD0K-78" target="9yJDeuIBgiFLJVAhCD0K-81">
          <mxGeometry relative="1" as="geometry" />
        </mxCell>
        <mxCell id="9yJDeuIBgiFLJVAhCD0K-78" value="验收测试报告" style="rounded=1;whiteSpace=wrap;html=1;" vertex="1" parent="1">
          <mxGeometry x="-710" y="2130" width="120" height="60" as="geometry" />
        </mxCell>
        <mxCell id="9yJDeuIBgiFLJVAhCD0K-84" style="edgeStyle=orthogonalEdgeStyle;rounded=0;orthogonalLoop=1;jettySize=auto;html=1;" edge="1" parent="1" source="9yJDeuIBgiFLJVAhCD0K-81" target="9yJDeuIBgiFLJVAhCD0K-83">
          <mxGeometry relative="1" as="geometry" />
        </mxCell>
        <mxCell id="9yJDeuIBgiFLJVAhCD0K-81" value="跟进前端联调阻塞的反馈" style="rounded=1;whiteSpace=wrap;html=1;" vertex="1" parent="1">
          <mxGeometry x="-710" y="2260" width="120" height="60" as="geometry" />
        </mxCell>
        <mxCell id="9yJDeuIBgiFLJVAhCD0K-86" style="edgeStyle=orthogonalEdgeStyle;rounded=0;orthogonalLoop=1;jettySize=auto;html=1;" edge="1" parent="1" source="9yJDeuIBgiFLJVAhCD0K-83" target="9yJDeuIBgiFLJVAhCD0K-85">
          <mxGeometry relative="1" as="geometry" />
        </mxCell>
        <mxCell id="9yJDeuIBgiFLJVAhCD0K-83" value="跟进测试人员测试进度反馈" style="rounded=1;whiteSpace=wrap;html=1;" vertex="1" parent="1">
          <mxGeometry x="-710" y="2540" width="120" height="60" as="geometry" />
        </mxCell>
        <mxCell id="9yJDeuIBgiFLJVAhCD0K-85" value="跟进发版" style="rounded=1;whiteSpace=wrap;html=1;" vertex="1" parent="1">
          <mxGeometry x="-710" y="2680" width="120" height="60" as="geometry" />
        </mxCell>
        <mxCell id="9yJDeuIBgiFLJVAhCD0K-94" value="" style="edgeStyle=orthogonalEdgeStyle;rounded=0;orthogonalLoop=1;jettySize=auto;html=1;" edge="1" parent="1" source="9yJDeuIBgiFLJVAhCD0K-92" target="9yJDeuIBgiFLJVAhCD0K-93">
          <mxGeometry relative="1" as="geometry" />
        </mxCell>
        <mxCell id="9yJDeuIBgiFLJVAhCD0K-92" value="运维开始" style="ellipse;whiteSpace=wrap;html=1;" vertex="1" parent="1">
          <mxGeometry x="-420" y="40" width="120" height="80" as="geometry" />
        </mxCell>
        <mxCell id="9yJDeuIBgiFLJVAhCD0K-96" value="" style="edgeStyle=orthogonalEdgeStyle;rounded=0;orthogonalLoop=1;jettySize=auto;html=1;" edge="1" parent="1" source="9yJDeuIBgiFLJVAhCD0K-93" target="9yJDeuIBgiFLJVAhCD0K-95">
          <mxGeometry relative="1" as="geometry" />
        </mxCell>
        <mxCell id="9yJDeuIBgiFLJVAhCD0K-93" value="测试环境准备" style="rounded=1;whiteSpace=wrap;html=1;" vertex="1" parent="1">
          <mxGeometry x="-420" y="1430" width="120" height="60" as="geometry" />
        </mxCell>
        <mxCell id="9yJDeuIBgiFLJVAhCD0K-98" style="edgeStyle=orthogonalEdgeStyle;rounded=0;orthogonalLoop=1;jettySize=auto;html=1;" edge="1" parent="1" source="9yJDeuIBgiFLJVAhCD0K-95" target="9yJDeuIBgiFLJVAhCD0K-97">
          <mxGeometry relative="1" as="geometry" />
        </mxCell>
        <mxCell id="9yJDeuIBgiFLJVAhCD0K-95" value="模拟生产环境准备" style="rounded=1;whiteSpace=wrap;html=1;" vertex="1" parent="1">
          <mxGeometry x="-420" y="2400" width="120" height="60" as="geometry" />
        </mxCell>
        <mxCell id="9yJDeuIBgiFLJVAhCD0K-100" style="edgeStyle=orthogonalEdgeStyle;rounded=0;orthogonalLoop=1;jettySize=auto;html=1;" edge="1" parent="1" source="9yJDeuIBgiFLJVAhCD0K-97" target="9yJDeuIBgiFLJVAhCD0K-99">
          <mxGeometry relative="1" as="geometry" />
        </mxCell>
        <mxCell id="9yJDeuIBgiFLJVAhCD0K-97" value="灰度和生产环境准备" style="rounded=1;whiteSpace=wrap;html=1;" vertex="1" parent="1">
          <mxGeometry x="-420" y="2540" width="120" height="60" as="geometry" />
        </mxCell>
        <mxCell id="9yJDeuIBgiFLJVAhCD0K-107" style="edgeStyle=orthogonalEdgeStyle;rounded=0;orthogonalLoop=1;jettySize=auto;html=1;dashed=1;" edge="1" parent="1" source="9yJDeuIBgiFLJVAhCD0K-99" target="9yJDeuIBgiFLJVAhCD0K-85">
          <mxGeometry relative="1" as="geometry" />
        </mxCell>
        <mxCell id="9yJDeuIBgiFLJVAhCD0K-99" value="灰度/生产发版" style="rounded=1;whiteSpace=wrap;html=1;" vertex="1" parent="1">
          <mxGeometry x="-420" y="2680" width="120" height="60" as="geometry" />
        </mxCell>
      </root>
    </mxGraphModel>
  </diagram>
</mxfile>
